<svg width="48" height="48" viewBox="0 0 48 48" fill="none" xmlns="http://www.w3.org/2000/svg">
<circle cx="24" cy="23.9999" r="21" fill="#105DFB"/>
<path fill-rule="evenodd" clip-rule="evenodd" d="M10.3139 32.9392V14.6151H18.7848C21.5057 14.6151 23.7114 16.8208 23.7114 19.5417C23.7114 21.2707 23.1797 22.3417 21.2304 23.4404C23.5631 24.5033 24.2109 25.9764 24.2109 28.0312C24.2109 30.8108 21.7416 32.9392 18.962 32.9392H10.3139ZM13.8984 17.6484V22.0546H18.0937C18.0937 22.0546 20.1328 22.0546 20.1328 19.8515C20.1328 17.6484 18.0937 17.6484 18.0937 17.6484H13.8984ZM13.8984 29.8359V25.0781H18.3984C19.125 25.0781 20.6484 25.4531 20.6484 27.7031C20.6484 29.3718 19.1484 29.8203 18.3984 29.8359H13.8984Z" fill="white"/>
<path fill-rule="evenodd" clip-rule="evenodd" d="M31.875 19.664C29.2969 19.664 25.4765 21.5156 25.4765 26.4374C25.4765 29.4344 27.1172 33.2812 32.039 33.2812C35.9765 33.2812 37.789 30.3906 38.2031 28.9453H34.5C34.3125 29.6015 33.5859 30.3281 32.039 30.3281C29.789 30.3281 28.9922 28.4062 28.875 27.4453H38.2031V26.4374C38.2031 21.5156 34.4531 19.664 31.875 19.664ZM31.875 22.4765C29.775 22.4765 29 24.2109 28.875 25.0781H34.5C34.5 24.2109 33.975 22.4765 31.875 22.4765Z" fill="white"/>
<path d="M27.3984 15.6562V17.9296H36.2344V15.6562H27.3984Z" fill="white"/>
</svg>
