<svg xmlns="http://www.w3.org/2000/svg" xmlns:xlink="http://www.w3.org/1999/xlink" viewBox="0 0 6497.5 6000"><defs><style>.cls-1{fill:#ffcb31;}.cls-2{fill:#232323;}.cls-3{fill:url(#Безымянный_градиент_2);}.cls-4{fill:url(#Безымянный_градиент_2-2);}.cls-5{fill:url(#Безымянный_градиент_2-3);}.cls-6{fill:#4f4f4f;}.cls-7{fill:url(#Безымянный_градиент_2-4);}</style><linearGradient id="Безымянный_градиент_2" x1="3000.82" y1="5104.12" x2="2980.77" y2="709.23" gradientUnits="userSpaceOnUse"><stop offset="0" stop-color="#232323"/><stop offset="0.25" stop-color="#272727"/><stop offset="0.5" stop-color="#343434"/><stop offset="0.76" stop-color="#484848"/><stop offset="0.83" stop-color="#4f4f4f"/></linearGradient><linearGradient id="Безымянный_градиент_2-2" x1="2733.48" y1="3690.68" x2="2727.92" y2="2471.57" xlink:href="#Безымянный_градиент_2"/><linearGradient id="Безымянный_градиент_2-3" x1="3251.05" y1="3735.71" x2="3246" y2="2629.52" xlink:href="#Безымянный_градиент_2"/><linearGradient id="Безымянный_градиент_2-4" x1="3502.94" y1="3816.96" x2="3493.52" y2="1751.39" xlink:href="#Безымянный_градиент_2"/></defs><g id="Слой_3" data-name="Слой 3"><rect class="cls-1" x="497.5" width="6000" height="6000"/></g><g id="Слой_2" data-name="Слой 2"><path class="cls-2" d="M4701.55,4823.13c-107.48-31.6-217.86-64.07-317.54-93.36a160.06,160.06,0,0,1-103.22-93.27c-14.39-35.38-31.21-76.86-48-118.33a485,485,0,0,0-310.42-282.55l-.91-.27,222.31,535.25a189.52,189.52,0,0,0,122.12,109.51l745.33,218.83h0A485,485,0,0,0,4701.55,4823.13Z" transform="translate(490 1)"/><path class="cls-2" d="M1767.22,4518.17c-16.8,41.47-33.62,82.95-48,118.33A160.06,160.06,0,0,1,1616,4729.77c-99.68,29.29-210.06,61.76-317.54,93.36a485,485,0,0,0-309.66,275.81h0l745.33-218.83a189.52,189.52,0,0,0,122.12-109.51l222.31-535.25-.91.27A485,485,0,0,0,1767.22,4518.17Z" transform="translate(490 1)"/><path class="cls-3" d="M5266.8,4850.38,3569.55,827.2a189.64,189.64,0,0,0-175.19-116.26H2605.64A189.64,189.64,0,0,0,2430.45,827.2L733.2,4850.38c-28.84,68.34-16.06,145.2,33.37,200.58a192,192,0,0,0,55.85,43.23l101.14-238.27C1348.09,3850.76,2126.23,2004.41,2566.23,961.83A120.19,120.19,0,0,1,2677,888.44h646a120.19,120.19,0,0,1,110.76,73.39c440,1042.58,1218.14,2888.93,1642.67,3894.09l101.14,238.27a192,192,0,0,0,55.85-43.23C5282.86,4995.58,5295.64,4918.72,5266.8,4850.38Z" transform="translate(490 1)"/><path class="cls-4" d="M2746.82,2518.92a77.32,77.32,0,0,0-76.18-47q-.46,0-.93.06a77.48,77.48,0,0,0-66.22,47.06l-332.94,784.35a77.51,77.51,0,0,0,19.28,97.27l2.42,1.89c.53.4,1.07.8,1.62,1.18s.8.57,1.2.83c.71.51,1.44,1,2.17,1.43a77.45,77.45,0,0,0,47.53,12h251.85a77.5,77.5,0,0,0,0-155H2456.1l219.09-516.14,379.86,894.9a77.31,77.31,0,0,0,101.37,41l.35-.15a77.31,77.31,0,0,0,41-101.37Z" transform="translate(490 1)"/><path class="cls-5" d="M3118.38,2677.67a77.5,77.5,0,0,0-101.62-41.06h0a77.51,77.51,0,0,0-41.06,101.62l403,949.34a77.49,77.49,0,0,0,101.62,41h0A77.5,77.5,0,0,0,3521.35,3627Z" transform="translate(490 1)"/><path class="cls-6" d="M2974.41,2537.45h0a77.5,77.5,0,0,0,41.06-101.62l-117-275.66a77.49,77.49,0,0,0-101.62-41.05h0a77.5,77.5,0,0,0-41.06,101.62l117,275.65A77.51,77.51,0,0,0,2974.41,2537.45Z" transform="translate(490 1)"/><path class="cls-7" d="M4017.33,3814.61a77.51,77.51,0,0,0,31.56-148.32L3794,3552.83,3050.43,1801a77.5,77.5,0,0,0-142.68,60.57l755.53,1779.92a77,77,0,0,0,27.34,33.52l1.19.8c.39.26.79.53,1.2.78l1,.65c.71.44,1.43.87,2.15,1.28l1,.53c.4.23.81.45,1.22.66,1.59.86,3.23,1.65,4.9,2.4l282.58,125.81A77.21,77.21,0,0,0,4017.33,3814.61Z" transform="translate(490 1)"/><circle class="cls-2" cx="126" cy="229" r="122"/><circle class="cls-6" cx="122" cy="590" r="122"/></g></svg>